<svg id="Camada_1" data-name="Camada 1" xmlns="http://www.w3.org/2000/svg" xmlns:xlink="http://www.w3.org/1999/xlink" viewBox="0 0 1392.56 387"><defs><style>.cls-1{fill:none;}.cls-2{clip-path:url(#clip-path);}.cls-3{fill:url(#Gradiente_sem_nome);}.cls-4{clip-path:url(#clip-path-2);}.cls-5{fill:url(#Gradiente_sem_nome_2);}.cls-6{clip-path:url(#clip-path-3);}.cls-7{fill:#937147;}</style><clipPath id="clip-path" transform="translate(-26.44 -36)"><path class="cls-1" d="M335.36,161.32c-137.5,37-217.3,52.08-262.35,58a3.75,3.75,0,0,0-2.81,5.45L172.85,421a3.75,3.75,0,0,0,6.65,0L281.23,225.7a3.75,3.75,0,0,0-3.29-5.49,4.1,4.1,0,0,0-1.22.2l-63.16,21.06a4.12,4.12,0,0,1-1.3.22c-3.55,0-5.29-5.19-1.62-7.11L338.1,168.26c3.63-1.89,1.95-7.08-1.66-7.08a4.16,4.16,0,0,0-1.08.14"/></clipPath><linearGradient id="Gradiente_sem_nome" y1="453.58" x2="1" y2="453.58" gradientTransform="matrix(270.36, 0, 0, -270.36, 43.33, 122883.43)" gradientUnits="userSpaceOnUse"><stop offset="0" stop-color="#bd1823"/><stop offset="0.3" stop-color="#c72422"/><stop offset="0.84" stop-color="#e1441f"/><stop offset="1" stop-color="#e94f1e"/></linearGradient><clipPath id="clip-path-2" transform="translate(-26.44 -36)"><path class="cls-1" d="M348.2,36.16s-98,49-170.58,63.88c-93.35,19.1-146.94,20-146.94,20a4.6,4.6,0,0,0-2.93,6.51S56.51,186,61.25,192.48c97.14-21.24,209.9-61.08,262.72-90.79.7-.39,29.49-59,29.49-59a4.6,4.6,0,0,0-4-6.7,4.68,4.68,0,0,0-1.21.16"/></clipPath><linearGradient id="Gradiente_sem_nome_2" y1="453.58" y2="453.58" gradientTransform="matrix(384.82, 0, 0, -384.82, -57.29, 174623.46)" xlink:href="#Gradiente_sem_nome"/><clipPath id="clip-path-3" transform="translate(-26.44 -36)"><rect class="cls-1" width="1484.72" height="453.58"/></clipPath></defs><g class="cls-2"><rect class="cls-3" x="42.56" y="125.18" width="272.74" height="261.82"/></g><g class="cls-4"><rect class="cls-5" width="328.64" height="156.48"/></g><g class="cls-6"><path class="cls-7" d="M763.54,207.88a3.87,3.87,0,0,0-2.13,5,87,87,0,0,1,5.94,32.67c0,46.4-28,71.86-61.23,71.86-32.88,0-61.24-25.78-61.24-71.86,0-44.8,27.4-71.55,61.24-71.55A58.16,58.16,0,0,1,727.31,178a3.89,3.89,0,0,0,5.21-2.74l8.4-37.09a3.88,3.88,0,0,0-2.71-4.58,119,119,0,0,0-32.09-4.33c-59.62,0-111.19,43.51-111.19,116.35,0,75.09,51.57,117,111.19,117,59,0,110.86-42.22,110.86-117,0-19.3-3.51-36.48-9.77-51.33a3.86,3.86,0,0,0-5-2.06Z" transform="translate(-26.44 -36)"/><path class="cls-7" d="M796.25,174.35a102.77,102.77,0,0,0-35.65-31.76,3.87,3.87,0,0,0-5.61,2.48l-12.54,51.2a3.87,3.87,0,0,0,5.32,4.46l46.86-20.64a3.85,3.85,0,0,0,1.62-5.74" transform="translate(-26.44 -36)"/><path class="cls-7" d="M1201.49,132.82H1029a3.87,3.87,0,0,0-3.87,3.87V171.3a3.87,3.87,0,0,0,3.85,3.87l55.19.25a7.08,7.08,0,0,1,6.29,3.81,3.85,3.85,0,0,1,.44,1.79V354.5a3.87,3.87,0,0,0,3.87,3.87l41,.07a3.87,3.87,0,0,0,3.88-3.87v-172a7.11,7.11,0,0,1,7.11-7.11h54.81a3.88,3.88,0,0,0,3.88-3.87l0-34.86a3.87,3.87,0,0,0-3.87-3.87" transform="translate(-26.44 -36)"/><path class="cls-7" d="M1351.59,243.22a3.75,3.75,0,0,1-.24-.44,7.22,7.22,0,0,1-.57-2.8,7.33,7.33,0,0,1,1.14-3.88l61.83-97.28a3.87,3.87,0,0,0-3.26-5.95l-45.17-.05a3.85,3.85,0,0,0-3.31,1.86l-40.11,65.93a3.87,3.87,0,0,1-6.61,0L1275,134.75a3.86,3.86,0,0,0-3.3-1.85l-46.64,0a3.88,3.88,0,0,0-3.28,5.93L1284.62,239a7.08,7.08,0,0,1,1.07,3.76,7.74,7.74,0,0,1-.93,3.58l-.18.31-66.89,105.82a3.86,3.86,0,0,0,3.27,5.93l44.89.07a3.9,3.9,0,0,0,3.3-1.82l45.46-73.05a3.87,3.87,0,0,1,6.6.05l43.93,72.88a3.87,3.87,0,0,0,3.31,1.87l46.67.06a3.88,3.88,0,0,0,3.31-5.89Z" transform="translate(-26.44 -36)"/><path class="cls-7" d="M975.55,255.21l-.55.3.55-.3" transform="translate(-26.44 -36)"/><path class="cls-7" d="M970.21,263.66a3.42,3.42,0,0,1-.32-.7c-1.25-3.8,2.22-6,4.46-7.12l1.7-.91-.5.28.55-.31a65,65,0,0,0,15.25-11.72c12.57-12.89,17.4-26.75,17.4-45.44,0-39.63-31.26-64.76-71.53-64.76L845.3,133a3.87,3.87,0,0,0-3.86,3.87V354.72a3.87,3.87,0,0,0,3.87,3.87l40,0a3.86,3.86,0,0,0,3.86-3.87V272a7.1,7.1,0,0,1,7.1-6.89h18a5.88,5.88,0,0,1,4.68,2.63l.16.26,49.07,88.6a3.86,3.86,0,0,0,3.39,2l46.54,0a3.87,3.87,0,0,0,3.35-5.8ZM933,223.52H895.62a7.11,7.11,0,0,1-6.39-6.21,3.1,3.1,0,0,1,0-.43V179.38a3.88,3.88,0,0,1,3.88-3.87h39.3c15.79,0,27.07,9.34,27.07,23.52,0,15.47-10.63,24.49-26.42,24.49" transform="translate(-26.44 -36)"/><path class="cls-7" d="M544.43,134.67l-45.33,116a2.71,2.71,0,0,1-.38.69,2.59,2.59,0,0,1-4.36-.5L448.63,134.66a2.91,2.91,0,0,0-2.71-1.84l-54.21.06a2.91,2.91,0,0,0-2.66,4.09L493.33,372.45a2.91,2.91,0,0,0,5.33,0L602.61,137a2.91,2.91,0,0,0-2.66-4.09l-52.8-.06a2.92,2.92,0,0,0-2.72,1.85" transform="translate(-26.44 -36)"/></g></svg>